# Tiled2Unity generated file. Do not modify by hand.
# Wavefront file for 'PlayerArea_mesh_0012.obj'

# Vertices (Count = 532)
v -6.4 -17.92 -0.56
v -6.72 -17.92 -0.56
v -6.72 -17.6 -0.56
v -6.4 -17.6 -0.56
v -6.72 -17.92 -0.56
v -7.04 -17.92 -0.56
v -7.04 -17.6 -0.56
v -6.72 -17.6 -0.56
v -7.04 -17.92 -0.56
v -7.36 -17.92 -0.56
v -7.36 -17.6 -0.56
v -7.04 -17.6 -0.56
v -9.92 -17.92 -0.56
v -10.24 -17.92 -0.56
v -10.24 -17.6 -0.56
v -9.92 -17.6 -0.56
v -10.24 -17.92 -0.56
v -10.56 -17.92 -0.56
v -10.56 -17.6 -0.56
v -10.24 -17.6 -0.56
v -10.56 -17.92 -0.56
v -10.88 -17.92 -0.56
v -10.88 -17.6 -0.56
v -10.56 -17.6 -0.56
v -2.24 -18.24 -0.57
v -2.56 -18.24 -0.57
v -2.56 -17.92 -0.57
v -2.24 -17.92 -0.57
v -2.56 -18.24 -0.57
v -2.88 -18.24 -0.57
v -2.88 -17.92 -0.57
v -2.56 -17.92 -0.57
v -2.88 -18.24 -0.57
v -3.2 -18.24 -0.57
v -3.2 -17.92 -0.57
v -2.88 -17.92 -0.57
v -3.2 -18.24 -0.57
v -3.52 -18.24 -0.57
v -3.52 -17.92 -0.57
v -3.2 -17.92 -0.57
v -3.52 -18.24 -0.57
v -3.84 -18.24 -0.57
v -3.84 -17.92 -0.57
v -3.52 -17.92 -0.57
v -3.84 -18.24 -0.57
v -4.16 -18.24 -0.57
v -4.16 -17.92 -0.57
v -3.84 -17.92 -0.57
v -4.16 -18.24 -0.57
v -4.48 -18.24 -0.57
v -4.48 -17.92 -0.57
v -4.16 -17.92 -0.57
v -4.48 -18.24 -0.57
v -4.8 -18.24 -0.57
v -4.8 -17.92 -0.57
v -4.48 -17.92 -0.57
v -4.8 -18.24 -0.57
v -5.12 -18.24 -0.57
v -5.12 -17.92 -0.57
v -4.8 -17.92 -0.57
v -5.12 -18.24 -0.57
v -5.44 -18.24 -0.57
v -5.44 -17.92 -0.57
v -5.12 -17.92 -0.57
v -5.44 -18.24 -0.57
v -5.76 -18.24 -0.57
v -5.76 -17.92 -0.57
v -5.44 -17.92 -0.57
v -6.4 -18.24 -0.57
v -6.72 -18.24 -0.57
v -6.72 -17.92 -0.57
v -6.4 -17.92 -0.57
v -6.72 -18.24 -0.57
v -7.04 -18.24 -0.57
v -7.04 -17.92 -0.57
v -6.72 -17.92 -0.57
v -7.04 -18.24 -0.57
v -7.36 -18.24 -0.57
v -7.36 -17.92 -0.57
v -7.04 -17.92 -0.57
v -9.92 -18.24 -0.57
v -10.24 -18.24 -0.57
v -10.24 -17.92 -0.57
v -9.92 -17.92 -0.57
v -10.24 -18.24 -0.57
v -10.56 -18.24 -0.57
v -10.56 -17.92 -0.57
v -10.24 -17.92 -0.57
v -10.56 -18.24 -0.57
v -10.88 -18.24 -0.57
v -10.88 -17.92 -0.57
v -10.56 -17.92 -0.57
v -2.24 -18.56 -0.58
v -2.56 -18.56 -0.58
v -2.56 -18.24 -0.58
v -2.24 -18.24 -0.58
v -2.56 -18.56 -0.58
v -2.88 -18.56 -0.58
v -2.88 -18.24 -0.58
v -2.56 -18.24 -0.58
v -2.88 -18.56 -0.58
v -3.2 -18.56 -0.58
v -3.2 -18.24 -0.58
v -2.88 -18.24 -0.58
v -3.2 -18.56 -0.58
v -3.52 -18.56 -0.58
v -3.52 -18.24 -0.58
v -3.2 -18.24 -0.58
v -3.52 -18.56 -0.58
v -3.84 -18.56 -0.58
v -3.84 -18.24 -0.58
v -3.52 -18.24 -0.58
v -3.84 -18.56 -0.58
v -4.16 -18.56 -0.58
v -4.16 -18.24 -0.58
v -3.84 -18.24 -0.58
v -4.16 -18.56 -0.58
v -4.48 -18.56 -0.58
v -4.48 -18.24 -0.58
v -4.16 -18.24 -0.58
v -4.48 -18.56 -0.58
v -4.8 -18.56 -0.58
v -4.8 -18.24 -0.58
v -4.48 -18.24 -0.58
v -4.8 -18.56 -0.58
v -5.12 -18.56 -0.58
v -5.12 -18.24 -0.58
v -4.8 -18.24 -0.58
v -5.12 -18.56 -0.58
v -5.44 -18.56 -0.58
v -5.44 -18.24 -0.58
v -5.12 -18.24 -0.58
v -5.44 -18.56 -0.58
v -5.76 -18.56 -0.58
v -5.76 -18.24 -0.58
v -5.44 -18.24 -0.58
v -6.4 -18.56 -0.58
v -6.72 -18.56 -0.58
v -6.72 -18.24 -0.58
v -6.4 -18.24 -0.58
v -6.72 -18.56 -0.58
v -7.04 -18.56 -0.58
v -7.04 -18.24 -0.58
v -6.72 -18.24 -0.58
v -7.04 -18.56 -0.58
v -7.36 -18.56 -0.58
v -7.36 -18.24 -0.58
v -7.04 -18.24 -0.58
v -7.36 -18.56 -0.58
v -7.68 -18.56 -0.58
v -7.68 -18.24 -0.58
v -7.36 -18.24 -0.58
v -7.68 -18.56 -0.58
v -8 -18.56 -0.58
v -8 -18.24 -0.58
v -7.68 -18.24 -0.58
v -8 -18.56 -0.58
v -8.32 -18.56 -0.58
v -8.32 -18.24 -0.58
v -8 -18.24 -0.58
v -8.32 -18.56 -0.58
v -8.639999 -18.56 -0.58
v -8.639999 -18.24 -0.58
v -8.32 -18.24 -0.58
v -8.639999 -18.56 -0.58
v -8.96 -18.56 -0.58
v -8.96 -18.24 -0.58
v -8.639999 -18.24 -0.58
v -8.96 -18.56 -0.58
v -9.28 -18.56 -0.58
v -9.28 -18.24 -0.58
v -8.96 -18.24 -0.58
v -9.28 -18.56 -0.58
v -9.599999 -18.56 -0.58
v -9.599999 -18.24 -0.58
v -9.28 -18.24 -0.58
v -9.599999 -18.56 -0.58
v -9.92 -18.56 -0.58
v -9.92 -18.24 -0.58
v -9.599999 -18.24 -0.58
v -9.92 -18.56 -0.58
v -10.24 -18.56 -0.58
v -10.24 -18.24 -0.58
v -9.92 -18.24 -0.58
v -10.24 -18.56 -0.58
v -10.56 -18.56 -0.58
v -10.56 -18.24 -0.58
v -10.24 -18.24 -0.58
v -10.56 -18.56 -0.58
v -10.88 -18.56 -0.58
v -10.88 -18.24 -0.58
v -10.56 -18.24 -0.58
v -2.24 -18.88 -0.59
v -2.56 -18.88 -0.59
v -2.56 -18.56 -0.59
v -2.24 -18.56 -0.59
v -2.56 -18.88 -0.59
v -2.88 -18.88 -0.59
v -2.88 -18.56 -0.59
v -2.56 -18.56 -0.59
v -2.88 -18.88 -0.59
v -3.2 -18.88 -0.59
v -3.2 -18.56 -0.59
v -2.88 -18.56 -0.59
v -3.2 -18.88 -0.59
v -3.52 -18.88 -0.59
v -3.52 -18.56 -0.59
v -3.2 -18.56 -0.59
v -3.52 -18.88 -0.59
v -3.84 -18.88 -0.59
v -3.84 -18.56 -0.59
v -3.52 -18.56 -0.59
v -3.84 -18.88 -0.59
v -4.16 -18.88 -0.59
v -4.16 -18.56 -0.59
v -3.84 -18.56 -0.59
v -4.16 -18.88 -0.59
v -4.48 -18.88 -0.59
v -4.48 -18.56 -0.59
v -4.16 -18.56 -0.59
v -4.48 -18.88 -0.59
v -4.8 -18.88 -0.59
v -4.8 -18.56 -0.59
v -4.48 -18.56 -0.59
v -4.8 -18.88 -0.59
v -5.12 -18.88 -0.59
v -5.12 -18.56 -0.59
v -4.8 -18.56 -0.59
v -5.12 -18.88 -0.59
v -5.44 -18.88 -0.59
v -5.44 -18.56 -0.59
v -5.12 -18.56 -0.59
v -5.44 -18.88 -0.59
v -5.76 -18.88 -0.59
v -5.76 -18.56 -0.59
v -5.44 -18.56 -0.59
v -6.4 -18.88 -0.59
v -6.72 -18.88 -0.59
v -6.72 -18.56 -0.59
v -6.4 -18.56 -0.59
v -6.72 -18.88 -0.59
v -7.04 -18.88 -0.59
v -7.04 -18.56 -0.59
v -6.72 -18.56 -0.59
v -7.04 -18.88 -0.59
v -7.36 -18.88 -0.59
v -7.36 -18.56 -0.59
v -7.04 -18.56 -0.59
v -7.36 -18.88 -0.59
v -7.68 -18.88 -0.59
v -7.68 -18.56 -0.59
v -7.36 -18.56 -0.59
v -7.68 -18.88 -0.59
v -8 -18.88 -0.59
v -8 -18.56 -0.59
v -7.68 -18.56 -0.59
v -8 -18.88 -0.59
v -8.32 -18.88 -0.59
v -8.32 -18.56 -0.59
v -8 -18.56 -0.59
v -8.32 -18.88 -0.59
v -8.639999 -18.88 -0.59
v -8.639999 -18.56 -0.59
v -8.32 -18.56 -0.59
v -8.639999 -18.88 -0.59
v -8.96 -18.88 -0.59
v -8.96 -18.56 -0.59
v -8.639999 -18.56 -0.59
v -8.96 -18.88 -0.59
v -9.28 -18.88 -0.59
v -9.28 -18.56 -0.59
v -8.96 -18.56 -0.59
v -9.28 -18.88 -0.59
v -9.599999 -18.88 -0.59
v -9.599999 -18.56 -0.59
v -9.28 -18.56 -0.59
v -9.599999 -18.88 -0.59
v -9.92 -18.88 -0.59
v -9.92 -18.56 -0.59
v -9.599999 -18.56 -0.59
v -9.92 -18.88 -0.59
v -10.24 -18.88 -0.59
v -10.24 -18.56 -0.59
v -9.92 -18.56 -0.59
v -10.24 -18.88 -0.59
v -10.56 -18.88 -0.59
v -10.56 -18.56 -0.59
v -10.24 -18.56 -0.59
v -10.56 -18.88 -0.59
v -10.88 -18.88 -0.59
v -10.88 -18.56 -0.59
v -10.56 -18.56 -0.59
v -2.24 -19.2 -0.6
v -2.56 -19.2 -0.6
v -2.56 -18.88 -0.6
v -2.24 -18.88 -0.6
v -2.56 -19.2 -0.6
v -2.88 -19.2 -0.6
v -2.88 -18.88 -0.6
v -2.56 -18.88 -0.6
v -2.88 -19.2 -0.6
v -3.2 -19.2 -0.6
v -3.2 -18.88 -0.6
v -2.88 -18.88 -0.6
v -3.2 -19.2 -0.6
v -3.52 -19.2 -0.6
v -3.52 -18.88 -0.6
v -3.2 -18.88 -0.6
v -3.52 -19.2 -0.6
v -3.84 -19.2 -0.6
v -3.84 -18.88 -0.6
v -3.52 -18.88 -0.6
v -3.84 -19.2 -0.6
v -4.16 -19.2 -0.6
v -4.16 -18.88 -0.6
v -3.84 -18.88 -0.6
v -4.16 -19.2 -0.6
v -4.48 -19.2 -0.6
v -4.48 -18.88 -0.6
v -4.16 -18.88 -0.6
v -4.48 -19.2 -0.6
v -4.8 -19.2 -0.6
v -4.8 -18.88 -0.6
v -4.48 -18.88 -0.6
v -4.8 -19.2 -0.6
v -5.12 -19.2 -0.6
v -5.12 -18.88 -0.6
v -4.8 -18.88 -0.6
v -5.12 -19.2 -0.6
v -5.44 -19.2 -0.6
v -5.44 -18.88 -0.6
v -5.12 -18.88 -0.6
v -5.44 -19.2 -0.6
v -5.76 -19.2 -0.6
v -5.76 -18.88 -0.6
v -5.44 -18.88 -0.6
v -6.4 -19.2 -0.6
v -6.72 -19.2 -0.6
v -6.72 -18.88 -0.6
v -6.4 -18.88 -0.6
v -6.72 -19.2 -0.6
v -7.04 -19.2 -0.6
v -7.04 -18.88 -0.6
v -6.72 -18.88 -0.6
v -7.04 -19.2 -0.6
v -7.36 -19.2 -0.6
v -7.36 -18.88 -0.6
v -7.04 -18.88 -0.6
v -7.36 -19.2 -0.6
v -7.68 -19.2 -0.6
v -7.68 -18.88 -0.6
v -7.36 -18.88 -0.6
v -7.68 -19.2 -0.6
v -8 -19.2 -0.6
v -8 -18.88 -0.6
v -7.68 -18.88 -0.6
v -8 -19.2 -0.6
v -8.32 -19.2 -0.6
v -8.32 -18.88 -0.6
v -8 -18.88 -0.6
v -8.32 -19.2 -0.6
v -8.639999 -19.2 -0.6
v -8.639999 -18.88 -0.6
v -8.32 -18.88 -0.6
v -8.639999 -19.2 -0.6
v -8.96 -19.2 -0.6
v -8.96 -18.88 -0.6
v -8.639999 -18.88 -0.6
v -8.96 -19.2 -0.6
v -9.28 -19.2 -0.6
v -9.28 -18.88 -0.6
v -8.96 -18.88 -0.6
v -9.28 -19.2 -0.6
v -9.599999 -19.2 -0.6
v -9.599999 -18.88 -0.6
v -9.28 -18.88 -0.6
v -9.599999 -19.2 -0.6
v -9.92 -19.2 -0.6
v -9.92 -18.88 -0.6
v -9.599999 -18.88 -0.6
v -9.92 -19.2 -0.6
v -10.24 -19.2 -0.6
v -10.24 -18.88 -0.6
v -9.92 -18.88 -0.6
v -10.24 -19.2 -0.6
v -10.56 -19.2 -0.6
v -10.56 -18.88 -0.6
v -10.24 -18.88 -0.6
v -10.56 -19.2 -0.6
v -10.88 -19.2 -0.6
v -10.88 -18.88 -0.6
v -10.56 -18.88 -0.6
v -2.24 -19.52 -0.61
v -2.56 -19.52 -0.61
v -2.56 -19.2 -0.61
v -2.24 -19.2 -0.61
v -2.56 -19.52 -0.61
v -2.88 -19.52 -0.61
v -2.88 -19.2 -0.61
v -2.56 -19.2 -0.61
v -2.88 -19.52 -0.61
v -3.2 -19.52 -0.61
v -3.2 -19.2 -0.61
v -2.88 -19.2 -0.61
v -3.2 -19.52 -0.61
v -3.52 -19.52 -0.61
v -3.52 -19.2 -0.61
v -3.2 -19.2 -0.61
v -3.52 -19.52 -0.61
v -3.84 -19.52 -0.61
v -3.84 -19.2 -0.61
v -3.52 -19.2 -0.61
v -3.84 -19.52 -0.61
v -4.16 -19.52 -0.61
v -4.16 -19.2 -0.61
v -3.84 -19.2 -0.61
v -4.16 -19.52 -0.61
v -4.48 -19.52 -0.61
v -4.48 -19.2 -0.61
v -4.16 -19.2 -0.61
v -4.48 -19.52 -0.61
v -4.8 -19.52 -0.61
v -4.8 -19.2 -0.61
v -4.48 -19.2 -0.61
v -4.8 -19.52 -0.61
v -5.12 -19.52 -0.61
v -5.12 -19.2 -0.61
v -4.8 -19.2 -0.61
v -5.12 -19.52 -0.61
v -5.44 -19.52 -0.61
v -5.44 -19.2 -0.61
v -5.12 -19.2 -0.61
v -5.44 -19.52 -0.61
v -5.76 -19.52 -0.61
v -5.76 -19.2 -0.61
v -5.44 -19.2 -0.61
v -6.4 -19.52 -0.61
v -6.72 -19.52 -0.61
v -6.72 -19.2 -0.61
v -6.4 -19.2 -0.61
v -6.72 -19.52 -0.61
v -7.04 -19.52 -0.61
v -7.04 -19.2 -0.61
v -6.72 -19.2 -0.61
v -7.04 -19.52 -0.61
v -7.36 -19.52 -0.61
v -7.36 -19.2 -0.61
v -7.04 -19.2 -0.61
v -7.36 -19.52 -0.61
v -7.68 -19.52 -0.61
v -7.68 -19.2 -0.61
v -7.36 -19.2 -0.61
v -7.68 -19.52 -0.61
v -8 -19.52 -0.61
v -8 -19.2 -0.61
v -7.68 -19.2 -0.61
v -8 -19.52 -0.61
v -8.32 -19.52 -0.61
v -8.32 -19.2 -0.61
v -8 -19.2 -0.61
v -8.32 -19.52 -0.61
v -8.639999 -19.52 -0.61
v -8.639999 -19.2 -0.61
v -8.32 -19.2 -0.61
v -8.639999 -19.52 -0.61
v -8.96 -19.52 -0.61
v -8.96 -19.2 -0.61
v -8.639999 -19.2 -0.61
v -8.96 -19.52 -0.61
v -9.28 -19.52 -0.61
v -9.28 -19.2 -0.61
v -8.96 -19.2 -0.61
v -9.28 -19.52 -0.61
v -9.599999 -19.52 -0.61
v -9.599999 -19.2 -0.61
v -9.28 -19.2 -0.61
v -9.599999 -19.52 -0.61
v -9.92 -19.52 -0.61
v -9.92 -19.2 -0.61
v -9.599999 -19.2 -0.61
v -9.92 -19.52 -0.61
v -10.24 -19.52 -0.61
v -10.24 -19.2 -0.61
v -9.92 -19.2 -0.61
v -10.24 -19.52 -0.61
v -10.56 -19.52 -0.61
v -10.56 -19.2 -0.61
v -10.24 -19.2 -0.61
v -10.56 -19.52 -0.61
v -10.88 -19.52 -0.61
v -10.88 -19.2 -0.61
v -10.56 -19.2 -0.61
v -7.04 -19.84 -0.62
v -7.36 -19.84 -0.62
v -7.36 -19.52 -0.62
v -7.04 -19.52 -0.62
v -7.36 -19.84 -0.62
v -7.68 -19.84 -0.62
v -7.68 -19.52 -0.62
v -7.36 -19.52 -0.62
v -7.68 -19.84 -0.62
v -8 -19.84 -0.62
v -8 -19.52 -0.62
v -7.68 -19.52 -0.62
v -8 -19.84 -0.62
v -8.32 -19.84 -0.62
v -8.32 -19.52 -0.62
v -8 -19.52 -0.62
v -8.32 -19.84 -0.62
v -8.639999 -19.84 -0.62
v -8.639999 -19.52 -0.62
v -8.32 -19.52 -0.62
v -8.639999 -19.84 -0.62
v -8.96 -19.84 -0.62
v -8.96 -19.52 -0.62
v -8.639999 -19.52 -0.62
v -8.96 -19.84 -0.62
v -9.28 -19.84 -0.62
v -9.28 -19.52 -0.62
v -8.96 -19.52 -0.62
v -9.28 -19.84 -0.62
v -9.599999 -19.84 -0.62
v -9.599999 -19.52 -0.62
v -9.28 -19.52 -0.62
v -9.599999 -19.84 -0.62
v -9.92 -19.84 -0.62
v -9.92 -19.52 -0.62
v -9.599999 -19.52 -0.62
v -9.92 -19.84 -0.62
v -10.24 -19.84 -0.62
v -10.24 -19.52 -0.62
v -9.92 -19.52 -0.62

# Texture cooridinates (Count = 22)
vt 0.09375 0.71875
vt 0.125 0.71875
vt 0.125 0.75
vt 0.09375 0.75
vt 0.15625 0.71875
vt 0.15625 0.75
vt 0.1875 0.71875
vt 0.1875 0.75
vt 0.09375 0.6875
vt 0.125 0.6875
vt 0.15625 0.6875
vt 0.1875 0.6875
vt 0.15625 0.78125
vt 0.125 0.78125
vt 0.1875 0.78125
vt 0.09375 0.65625
vt 0.125 0.65625
vt 0.15625 0.65625
vt 0.1875 0.65625
vt 0.1875 0.8125
vt 0.15625 0.8125
vt 0.125 0.8125

# Normal
vn 0 0 -1

# Mesh description
g PlayerArea_mesh_0012

# Faces
f 1/1/1 2/2/1 3/3/1 4/4/1
f 5/2/1 6/5/1 7/6/1 8/3/1
f 9/5/1 10/7/1 11/8/1 12/6/1
f 13/1/1 14/2/1 15/3/1 16/4/1
f 17/2/1 18/5/1 19/6/1 20/3/1
f 21/5/1 22/7/1 23/8/1 24/6/1
f 25/1/1 26/2/1 27/3/1 28/4/1
f 29/2/1 30/5/1 31/6/1 32/3/1
f 33/2/1 34/5/1 35/6/1 36/3/1
f 37/2/1 38/5/1 39/6/1 40/3/1
f 41/2/1 42/5/1 43/6/1 44/3/1
f 45/2/1 46/5/1 47/6/1 48/3/1
f 49/2/1 50/5/1 51/6/1 52/3/1
f 53/2/1 54/5/1 55/6/1 56/3/1
f 57/2/1 58/5/1 59/6/1 60/3/1
f 61/2/1 62/5/1 63/6/1 64/3/1
f 65/5/1 66/7/1 67/8/1 68/6/1
f 69/9/1 70/10/1 71/2/1 72/1/1
f 73/10/1 74/11/1 75/5/1 76/2/1
f 77/11/1 78/12/1 79/7/1 80/5/1
f 81/9/1 82/10/1 83/2/1 84/1/1
f 85/10/1 86/11/1 87/5/1 88/2/1
f 89/11/1 90/12/1 91/7/1 92/5/1
f 93/9/1 94/10/1 95/2/1 96/1/1
f 97/10/1 98/11/1 99/5/1 100/2/1
f 101/10/1 102/11/1 103/5/1 104/2/1
f 105/10/1 106/11/1 107/5/1 108/2/1
f 109/10/1 110/11/1 111/5/1 112/2/1
f 113/10/1 114/11/1 115/5/1 116/2/1
f 117/10/1 118/11/1 119/5/1 120/2/1
f 121/10/1 122/11/1 123/5/1 124/2/1
f 125/10/1 126/11/1 127/5/1 128/2/1
f 129/10/1 130/11/1 131/5/1 132/2/1
f 133/11/1 134/12/1 135/7/1 136/5/1
f 137/9/1 138/10/1 139/2/1 140/1/1
f 141/10/1 142/11/1 143/5/1 144/2/1
f 145/3/1 146/6/1 147/13/1 148/14/1
f 149/2/1 150/5/1 151/6/1 152/3/1
f 153/2/1 154/5/1 155/6/1 156/3/1
f 157/2/1 158/5/1 159/6/1 160/3/1
f 161/2/1 162/5/1 163/6/1 164/3/1
f 165/2/1 166/5/1 167/6/1 168/3/1
f 169/2/1 170/5/1 171/6/1 172/3/1
f 173/2/1 174/5/1 175/6/1 176/3/1
f 177/2/1 178/5/1 179/6/1 180/3/1
f 181/6/1 182/8/1 183/15/1 184/13/1
f 185/10/1 186/11/1 187/5/1 188/2/1
f 189/11/1 190/12/1 191/7/1 192/5/1
f 193/9/1 194/10/1 195/2/1 196/1/1
f 197/10/1 198/11/1 199/5/1 200/2/1
f 201/10/1 202/11/1 203/5/1 204/2/1
f 205/10/1 206/11/1 207/5/1 208/2/1
f 209/10/1 210/11/1 211/5/1 212/2/1
f 213/10/1 214/11/1 215/5/1 216/2/1
f 217/10/1 218/11/1 219/5/1 220/2/1
f 221/10/1 222/11/1 223/5/1 224/2/1
f 225/10/1 226/11/1 227/5/1 228/2/1
f 229/10/1 230/11/1 231/5/1 232/2/1
f 233/11/1 234/12/1 235/7/1 236/5/1
f 237/9/1 238/10/1 239/2/1 240/1/1
f 241/10/1 242/11/1 243/5/1 244/2/1
f 245/10/1 246/11/1 247/5/1 248/2/1
f 249/10/1 250/11/1 251/5/1 252/2/1
f 253/10/1 254/11/1 255/5/1 256/2/1
f 257/10/1 258/11/1 259/5/1 260/2/1
f 261/10/1 262/11/1 263/5/1 264/2/1
f 265/10/1 266/11/1 267/5/1 268/2/1
f 269/10/1 270/11/1 271/5/1 272/2/1
f 273/10/1 274/11/1 275/5/1 276/2/1
f 277/10/1 278/11/1 279/5/1 280/2/1
f 281/10/1 282/11/1 283/5/1 284/2/1
f 285/10/1 286/11/1 287/5/1 288/2/1
f 289/11/1 290/12/1 291/7/1 292/5/1
f 293/9/1 294/10/1 295/2/1 296/1/1
f 297/10/1 298/11/1 299/5/1 300/2/1
f 301/10/1 302/11/1 303/5/1 304/2/1
f 305/10/1 306/11/1 307/5/1 308/2/1
f 309/10/1 310/11/1 311/5/1 312/2/1
f 313/10/1 314/11/1 315/5/1 316/2/1
f 317/10/1 318/11/1 319/5/1 320/2/1
f 321/10/1 322/11/1 323/5/1 324/2/1
f 325/10/1 326/11/1 327/5/1 328/2/1
f 329/10/1 330/11/1 331/5/1 332/2/1
f 333/11/1 334/12/1 335/7/1 336/5/1
f 337/9/1 338/10/1 339/2/1 340/1/1
f 341/10/1 342/11/1 343/5/1 344/2/1
f 345/10/1 346/11/1 347/5/1 348/2/1
f 349/10/1 350/11/1 351/5/1 352/2/1
f 353/10/1 354/11/1 355/5/1 356/2/1
f 357/10/1 358/11/1 359/5/1 360/2/1
f 361/10/1 362/11/1 363/5/1 364/2/1
f 365/10/1 366/11/1 367/5/1 368/2/1
f 369/10/1 370/11/1 371/5/1 372/2/1
f 373/10/1 374/11/1 375/5/1 376/2/1
f 377/10/1 378/11/1 379/5/1 380/2/1
f 381/10/1 382/11/1 383/5/1 384/2/1
f 385/10/1 386/11/1 387/5/1 388/2/1
f 389/11/1 390/12/1 391/7/1 392/5/1
f 393/16/1 394/17/1 395/10/1 396/9/1
f 397/17/1 398/18/1 399/11/1 400/10/1
f 401/17/1 402/18/1 403/11/1 404/10/1
f 405/17/1 406/18/1 407/11/1 408/10/1
f 409/17/1 410/18/1 411/11/1 412/10/1
f 413/17/1 414/18/1 415/11/1 416/10/1
f 417/17/1 418/18/1 419/11/1 420/10/1
f 421/17/1 422/18/1 423/11/1 424/10/1
f 425/17/1 426/18/1 427/11/1 428/10/1
f 429/17/1 430/18/1 431/11/1 432/10/1
f 433/18/1 434/19/1 435/12/1 436/11/1
f 437/16/1 438/17/1 439/10/1 440/9/1
f 441/17/1 442/18/1 443/11/1 444/10/1
f 445/13/1 446/15/1 447/20/1 448/21/1
f 449/10/1 450/11/1 451/5/1 452/2/1
f 453/10/1 454/11/1 455/5/1 456/2/1
f 457/10/1 458/11/1 459/5/1 460/2/1
f 461/10/1 462/11/1 463/5/1 464/2/1
f 465/10/1 466/11/1 467/5/1 468/2/1
f 469/10/1 470/11/1 471/5/1 472/2/1
f 473/10/1 474/11/1 475/5/1 476/2/1
f 477/10/1 478/11/1 479/5/1 480/2/1
f 481/14/1 482/13/1 483/21/1 484/22/1
f 485/17/1 486/18/1 487/11/1 488/10/1
f 489/18/1 490/19/1 491/12/1 492/11/1
f 493/16/1 494/17/1 495/10/1 496/9/1
f 497/17/1 498/18/1 499/11/1 500/10/1
f 501/17/1 502/18/1 503/11/1 504/10/1
f 505/17/1 506/18/1 507/11/1 508/10/1
f 509/17/1 510/18/1 511/11/1 512/10/1
f 513/17/1 514/18/1 515/11/1 516/10/1
f 517/17/1 518/18/1 519/11/1 520/10/1
f 521/17/1 522/18/1 523/11/1 524/10/1
f 525/17/1 526/18/1 527/11/1 528/10/1
f 529/18/1 530/19/1 531/12/1 532/11/1

