# Tiled2Unity generated file. Do not modify by hand.
# Wavefront file for 'PlayerArea_mesh_0023.obj'

# Vertices (Count = 384)
v -18.88 -3.84 -0.12
v -19.2 -3.84 -0.12
v -19.2 -3.52 -0.12
v -18.88 -3.52 -0.12
v -19.2 -3.84 -0.12
v -19.52 -3.84 -0.12
v -19.52 -3.52 -0.12
v -19.2 -3.52 -0.12
v -19.52 -3.84 -0.12
v -19.84 -3.84 -0.12
v -19.84 -3.52 -0.12
v -19.52 -3.52 -0.12
v -19.84 -3.84 -0.12
v -20.16 -3.84 -0.12
v -20.16 -3.52 -0.12
v -19.84 -3.52 -0.12
v -18.88 -4.16 -0.13
v -19.2 -4.16 -0.13
v -19.2 -3.84 -0.13
v -18.88 -3.84 -0.13
v -19.2 -4.16 -0.13
v -19.52 -4.16 -0.13
v -19.52 -3.84 -0.13
v -19.2 -3.84 -0.13
v -19.52 -4.16 -0.13
v -19.84 -4.16 -0.13
v -19.84 -3.84 -0.13
v -19.52 -3.84 -0.13
v -19.84 -4.16 -0.13
v -20.16 -4.16 -0.13
v -20.16 -3.84 -0.13
v -19.84 -3.84 -0.13
v -18.24 -4.48 -0.14
v -18.56 -4.48 -0.14
v -18.56 -4.16 -0.14
v -18.24 -4.16 -0.14
v -18.56 -4.48 -0.14
v -18.88 -4.48 -0.14
v -18.88 -4.16 -0.14
v -18.56 -4.16 -0.14
v -18.88 -4.48 -0.14
v -19.2 -4.48 -0.14
v -19.2 -4.16 -0.14
v -18.88 -4.16 -0.14
v -19.2 -4.48 -0.14
v -19.52 -4.48 -0.14
v -19.52 -4.16 -0.14
v -19.2 -4.16 -0.14
v -19.52 -4.48 -0.14
v -19.84 -4.48 -0.14
v -19.84 -4.16 -0.14
v -19.52 -4.16 -0.14
v -19.84 -4.48 -0.14
v -20.16 -4.48 -0.14
v -20.16 -4.16 -0.14
v -19.84 -4.16 -0.14
v -20.16 -4.48 -0.14
v -20.48 -4.48 -0.14
v -20.48 -4.16 -0.14
v -20.16 -4.16 -0.14
v -20.48 -4.48 -0.14
v -20.8 -4.48 -0.14
v -20.8 -4.16 -0.14
v -20.48 -4.16 -0.14
v -20.8 -4.48 -0.14
v -21.12 -4.48 -0.14
v -21.12 -4.16 -0.14
v -20.8 -4.16 -0.14
v -18.24 -4.8 -0.15
v -18.56 -4.8 -0.15
v -18.56 -4.48 -0.15
v -18.24 -4.48 -0.15
v -18.56 -4.8 -0.15
v -18.88 -4.8 -0.15
v -18.88 -4.48 -0.15
v -18.56 -4.48 -0.15
v -18.88 -4.8 -0.15
v -19.2 -4.8 -0.15
v -19.2 -4.48 -0.15
v -18.88 -4.48 -0.15
v -19.2 -4.8 -0.15
v -19.52 -4.8 -0.15
v -19.52 -4.48 -0.15
v -19.2 -4.48 -0.15
v -19.52 -4.8 -0.15
v -19.84 -4.8 -0.15
v -19.84 -4.48 -0.15
v -19.52 -4.48 -0.15
v -19.84 -4.8 -0.15
v -20.16 -4.8 -0.15
v -20.16 -4.48 -0.15
v -19.84 -4.48 -0.15
v -20.16 -4.8 -0.15
v -20.48 -4.8 -0.15
v -20.48 -4.48 -0.15
v -20.16 -4.48 -0.15
v -20.48 -4.8 -0.15
v -20.8 -4.8 -0.15
v -20.8 -4.48 -0.15
v -20.48 -4.48 -0.15
v -20.8 -4.8 -0.15
v -21.12 -4.8 -0.15
v -21.12 -4.48 -0.15
v -20.8 -4.48 -0.15
v -17.92 -5.12 -0.16
v -18.24 -5.12 -0.16
v -18.24 -4.8 -0.16
v -17.92 -4.8 -0.16
v -18.24 -5.12 -0.16
v -18.56 -5.12 -0.16
v -18.56 -4.8 -0.16
v -18.24 -4.8 -0.16
v -18.56 -5.12 -0.16
v -18.88 -5.12 -0.16
v -18.88 -4.8 -0.16
v -18.56 -4.8 -0.16
v -18.88 -5.12 -0.16
v -19.2 -5.12 -0.16
v -19.2 -4.8 -0.16
v -18.88 -4.8 -0.16
v -19.2 -5.12 -0.16
v -19.52 -5.12 -0.16
v -19.52 -4.8 -0.16
v -19.2 -4.8 -0.16
v -19.52 -5.12 -0.16
v -19.84 -5.12 -0.16
v -19.84 -4.8 -0.16
v -19.52 -4.8 -0.16
v -19.84 -5.12 -0.16
v -20.16 -5.12 -0.16
v -20.16 -4.8 -0.16
v -19.84 -4.8 -0.16
v -20.16 -5.12 -0.16
v -20.48 -5.12 -0.16
v -20.48 -4.8 -0.16
v -20.16 -4.8 -0.16
v -20.48 -5.12 -0.16
v -20.8 -5.12 -0.16
v -20.8 -4.8 -0.16
v -20.48 -4.8 -0.16
v -20.8 -5.12 -0.16
v -21.12 -5.12 -0.16
v -21.12 -4.8 -0.16
v -20.8 -4.8 -0.16
v -17.92 -5.44 -0.17
v -18.24 -5.44 -0.17
v -18.24 -5.12 -0.17
v -17.92 -5.12 -0.17
v -18.24 -5.44 -0.17
v -18.56 -5.44 -0.17
v -18.56 -5.12 -0.17
v -18.24 -5.12 -0.17
v -18.56 -5.44 -0.17
v -18.88 -5.44 -0.17
v -18.88 -5.12 -0.17
v -18.56 -5.12 -0.17
v -18.88 -5.44 -0.17
v -19.2 -5.44 -0.17
v -19.2 -5.12 -0.17
v -18.88 -5.12 -0.17
v -19.2 -5.44 -0.17
v -19.52 -5.44 -0.17
v -19.52 -5.12 -0.17
v -19.2 -5.12 -0.17
v -19.52 -5.44 -0.17
v -19.84 -5.44 -0.17
v -19.84 -5.12 -0.17
v -19.52 -5.12 -0.17
v -19.84 -5.44 -0.17
v -20.16 -5.44 -0.17
v -20.16 -5.12 -0.17
v -19.84 -5.12 -0.17
v -20.16 -5.44 -0.17
v -20.48 -5.44 -0.17
v -20.48 -5.12 -0.17
v -20.16 -5.12 -0.17
v -20.48 -5.44 -0.17
v -20.8 -5.44 -0.17
v -20.8 -5.12 -0.17
v -20.48 -5.12 -0.17
v -20.8 -5.44 -0.17
v -21.12 -5.44 -0.17
v -21.12 -5.12 -0.17
v -20.8 -5.12 -0.17
v -17.92 -5.76 -0.18
v -18.24 -5.76 -0.18
v -18.24 -5.44 -0.18
v -17.92 -5.44 -0.18
v -18.24 -5.76 -0.18
v -18.56 -5.76 -0.18
v -18.56 -5.44 -0.18
v -18.24 -5.44 -0.18
v -18.56 -5.76 -0.18
v -18.88 -5.76 -0.18
v -18.88 -5.44 -0.18
v -18.56 -5.44 -0.18
v -18.88 -5.76 -0.18
v -19.2 -5.76 -0.18
v -19.2 -5.44 -0.18
v -18.88 -5.44 -0.18
v -19.2 -5.76 -0.18
v -19.52 -5.76 -0.18
v -19.52 -5.44 -0.18
v -19.2 -5.44 -0.18
v -19.52 -5.76 -0.18
v -19.84 -5.76 -0.18
v -19.84 -5.44 -0.18
v -19.52 -5.44 -0.18
v -19.84 -5.76 -0.18
v -20.16 -5.76 -0.18
v -20.16 -5.44 -0.18
v -19.84 -5.44 -0.18
v -20.16 -5.76 -0.18
v -20.48 -5.76 -0.18
v -20.48 -5.44 -0.18
v -20.16 -5.44 -0.18
v -20.48 -5.76 -0.18
v -20.8 -5.76 -0.18
v -20.8 -5.44 -0.18
v -20.48 -5.44 -0.18
v -20.8 -5.76 -0.18
v -21.12 -5.76 -0.18
v -21.12 -5.44 -0.18
v -20.8 -5.44 -0.18
v -17.92 -6.08 -0.19
v -18.24 -6.08 -0.19
v -18.24 -5.76 -0.19
v -17.92 -5.76 -0.19
v -18.24 -6.08 -0.19
v -18.56 -6.08 -0.19
v -18.56 -5.76 -0.19
v -18.24 -5.76 -0.19
v -18.56 -6.08 -0.19
v -18.88 -6.08 -0.19
v -18.88 -5.76 -0.19
v -18.56 -5.76 -0.19
v -18.88 -6.08 -0.19
v -19.2 -6.08 -0.19
v -19.2 -5.76 -0.19
v -18.88 -5.76 -0.19
v -19.2 -6.08 -0.19
v -19.52 -6.08 -0.19
v -19.52 -5.76 -0.19
v -19.2 -5.76 -0.19
v -19.52 -6.08 -0.19
v -19.84 -6.08 -0.19
v -19.84 -5.76 -0.19
v -19.52 -5.76 -0.19
v -19.84 -6.08 -0.19
v -20.16 -6.08 -0.19
v -20.16 -5.76 -0.19
v -19.84 -5.76 -0.19
v -20.16 -6.08 -0.19
v -20.48 -6.08 -0.19
v -20.48 -5.76 -0.19
v -20.16 -5.76 -0.19
v -20.48 -6.08 -0.19
v -20.8 -6.08 -0.19
v -20.8 -5.76 -0.19
v -20.48 -5.76 -0.19
v -20.8 -6.08 -0.19
v -21.12 -6.08 -0.19
v -21.12 -5.76 -0.19
v -20.8 -5.76 -0.19
v -17.92 -6.4 -0.2
v -18.24 -6.4 -0.2
v -18.24 -6.08 -0.2
v -17.92 -6.08 -0.2
v -18.24 -6.4 -0.2
v -18.56 -6.4 -0.2
v -18.56 -6.08 -0.2
v -18.24 -6.08 -0.2
v -18.56 -6.4 -0.2
v -18.88 -6.4 -0.2
v -18.88 -6.08 -0.2
v -18.56 -6.08 -0.2
v -18.88 -6.4 -0.2
v -19.2 -6.4 -0.2
v -19.2 -6.08 -0.2
v -18.88 -6.08 -0.2
v -19.2 -6.4 -0.2
v -19.52 -6.4 -0.2
v -19.52 -6.08 -0.2
v -19.2 -6.08 -0.2
v -19.52 -6.4 -0.2
v -19.84 -6.4 -0.2
v -19.84 -6.08 -0.2
v -19.52 -6.08 -0.2
v -19.84 -6.4 -0.2
v -20.16 -6.4 -0.2
v -20.16 -6.08 -0.2
v -19.84 -6.08 -0.2
v -20.16 -6.4 -0.2
v -20.48 -6.4 -0.2
v -20.48 -6.08 -0.2
v -20.16 -6.08 -0.2
v -20.48 -6.4 -0.2
v -20.8 -6.4 -0.2
v -20.8 -6.08 -0.2
v -20.48 -6.08 -0.2
v -20.8 -6.4 -0.2
v -21.12 -6.4 -0.2
v -21.12 -6.08 -0.2
v -20.8 -6.08 -0.2
v -17.92 -6.72 -0.21
v -18.24 -6.72 -0.21
v -18.24 -6.4 -0.21
v -17.92 -6.4 -0.21
v -18.24 -6.72 -0.21
v -18.56 -6.72 -0.21
v -18.56 -6.4 -0.21
v -18.24 -6.4 -0.21
v -18.56 -6.72 -0.21
v -18.88 -6.72 -0.21
v -18.88 -6.4 -0.21
v -18.56 -6.4 -0.21
v -18.88 -6.72 -0.21
v -19.2 -6.72 -0.21
v -19.2 -6.4 -0.21
v -18.88 -6.4 -0.21
v -19.2 -6.72 -0.21
v -19.52 -6.72 -0.21
v -19.52 -6.4 -0.21
v -19.2 -6.4 -0.21
v -19.52 -6.72 -0.21
v -19.84 -6.72 -0.21
v -19.84 -6.4 -0.21
v -19.52 -6.4 -0.21
v -19.84 -6.72 -0.21
v -20.16 -6.72 -0.21
v -20.16 -6.4 -0.21
v -19.84 -6.4 -0.21
v -20.16 -6.72 -0.21
v -20.48 -6.72 -0.21
v -20.48 -6.4 -0.21
v -20.16 -6.4 -0.21
v -20.48 -6.72 -0.21
v -20.8 -6.72 -0.21
v -20.8 -6.4 -0.21
v -20.48 -6.4 -0.21
v -20.8 -6.72 -0.21
v -21.12 -6.72 -0.21
v -21.12 -6.4 -0.21
v -20.8 -6.4 -0.21
v -17.92 -7.04 -0.22
v -18.24 -7.04 -0.22
v -18.24 -6.72 -0.22
v -17.92 -6.72 -0.22
v -18.24 -7.04 -0.22
v -18.56 -7.04 -0.22
v -18.56 -6.72 -0.22
v -18.24 -6.72 -0.22
v -18.56 -7.04 -0.22
v -18.88 -7.04 -0.22
v -18.88 -6.72 -0.22
v -18.56 -6.72 -0.22
v -18.88 -7.04 -0.22
v -19.2 -7.04 -0.22
v -19.2 -6.72 -0.22
v -18.88 -6.72 -0.22
v -19.2 -7.04 -0.22
v -19.52 -7.04 -0.22
v -19.52 -6.72 -0.22
v -19.2 -6.72 -0.22
v -19.52 -7.04 -0.22
v -19.84 -7.04 -0.22
v -19.84 -6.72 -0.22
v -19.52 -6.72 -0.22
v -19.84 -7.04 -0.22
v -20.16 -7.04 -0.22
v -20.16 -6.72 -0.22
v -19.84 -6.72 -0.22
v -20.16 -7.04 -0.22
v -20.48 -7.04 -0.22
v -20.48 -6.72 -0.22
v -20.16 -6.72 -0.22
v -20.48 -7.04 -0.22
v -20.8 -7.04 -0.22
v -20.8 -6.72 -0.22
v -20.48 -6.72 -0.22
v -20.8 -7.04 -0.22
v -21.12 -7.04 -0.22
v -21.12 -6.72 -0.22
v -20.8 -6.72 -0.22

# Texture cooridinates (Count = 118)
vt 0.125 0.4166667
vt 0.1666667 0.4166667
vt 0.1666667 0.4583333
vt 0.125 0.4583333
vt 0.2083333 0.4166667
vt 0.2083333 0.4583333
vt 0.25 0.4166667
vt 0.25 0.4583333
vt 0.2916667 0.4166667
vt 0.2916667 0.4583333
vt 0.125 0.375
vt 0.1666667 0.375
vt 0.2083333 0.375
vt 0.25 0.375
vt 0.2916667 0.375
vt 0.04166667 0.3333333
vt 0.08333334 0.3333333
vt 0.08333334 0.375
vt 0.04166667 0.375
vt 0.125 0.3333333
vt 0.1666667 0.3333333
vt 0.2083333 0.3333333
vt 0.25 0.3333333
vt 0.2916667 0.3333333
vt 0.3333333 0.3333333
vt 0.3333333 0.375
vt 0.375 0.3333333
vt 0.375 0.375
vt 0.4166667 0.3333333
vt 0.4166667 0.375
vt 0.04166667 0.2916667
vt 0.08333334 0.2916667
vt 0.125 0.2916667
vt 0.1666667 0.2916667
vt 0.2083333 0.2916667
vt 0.25 0.2916667
vt 0.2916667 0.2916667
vt 0.3333333 0.2916667
vt 0.375 0.2916667
vt 0.4166667 0.2916667
vt 0 0.25
vt 0.04166667 0.25
vt 0 0.2916667
vt 0.08333334 0.25
vt 0.125 0.25
vt 0.1666667 0.25
vt 0.2083333 0.25
vt 0.25 0.25
vt 0.2916667 0.25
vt 0.3333333 0.25
vt 0.375 0.25
vt 0.4166667 0.25
vt 0 0.2083333
vt 0.04166667 0.2083333
vt 0.08333334 0.2083333
vt 0.125 0.2083333
vt 0.1666667 0.2083333
vt 0.2083333 0.2083333
vt 0.25 0.2083333
vt 0.2916667 0.2083333
vt 0.3333333 0.2083333
vt 0.375 0.2083333
vt 0.4166667 0.2083333
vt 0 0.1666667
vt 0.04166667 0.1666667
vt 0.08333334 0.1666667
vt 0.125 0.1666667
vt 0.1666667 0.1666667
vt 0.2083333 0.1666667
vt 0.25 0.1666667
vt 0.2916667 0.1666667
vt 0.3333333 0.1666667
vt 0.375 0.1666667
vt 0.4166667 0.1666667
vt 0 0.125
vt 0.04166667 0.125
vt 0.08333334 0.125
vt 0.125 0.125
vt 0.1666667 0.125
vt 0.2083333 0.125
vt 0.25 0.125
vt 0.2916667 0.125
vt 0.3333333 0.125
vt 0.375 0.125
vt 0.4166667 0.125
vt 0 0.08333331
vt 0.04166667 0.08333331
vt 0.08333334 0.08333331
vt 0.125 0.08333331
vt 0.1666667 0.08333331
vt 0.2083333 0.08333331
vt 0.25 0.08333331
vt 0.2916667 0.08333331
vt 0.3333333 0.08333331
vt 0.375 0.08333331
vt 0.4166667 0.08333331
vt 0 0.04166669
vt 0.04166667 0.04166669
vt 0.08333334 0.04166669
vt 0.125 0.04166669
vt 0.1666667 0.04166669
vt 0.2083333 0.04166669
vt 0.25 0.04166669
vt 0.2916667 0.04166669
vt 0.3333333 0.04166669
vt 0.375 0.04166669
vt 0.4166667 0.04166669
vt 0 0
vt 0.04166667 0
vt 0.08333334 0
vt 0.125 0
vt 0.1666667 0
vt 0.2083333 0
vt 0.25 0
vt 0.2916667 0
vt 0.3333333 0
vt 0.375 0
vt 0.4166667 0

# Normal
vn 0 0 -1

# Mesh description
g PlayerArea_mesh_0023

# Faces
f 1/1/1 2/2/1 3/3/1 4/4/1
f 5/2/1 6/5/1 7/6/1 8/3/1
f 9/5/1 10/7/1 11/8/1 12/6/1
f 13/7/1 14/9/1 15/10/1 16/8/1
f 17/11/1 18/12/1 19/2/1 20/1/1
f 21/12/1 22/13/1 23/5/1 24/2/1
f 25/13/1 26/14/1 27/7/1 28/5/1
f 29/14/1 30/15/1 31/9/1 32/7/1
f 33/16/1 34/17/1 35/18/1 36/19/1
f 37/17/1 38/20/1 39/11/1 40/18/1
f 41/20/1 42/21/1 43/12/1 44/11/1
f 45/21/1 46/22/1 47/13/1 48/12/1
f 49/22/1 50/23/1 51/14/1 52/13/1
f 53/23/1 54/24/1 55/15/1 56/14/1
f 57/24/1 58/25/1 59/26/1 60/15/1
f 61/25/1 62/27/1 63/28/1 64/26/1
f 65/27/1 66/29/1 67/30/1 68/28/1
f 69/31/1 70/32/1 71/17/1 72/16/1
f 73/32/1 74/33/1 75/20/1 76/17/1
f 77/33/1 78/34/1 79/21/1 80/20/1
f 81/34/1 82/35/1 83/22/1 84/21/1
f 85/35/1 86/36/1 87/23/1 88/22/1
f 89/36/1 90/37/1 91/24/1 92/23/1
f 93/37/1 94/38/1 95/25/1 96/24/1
f 97/38/1 98/39/1 99/27/1 100/25/1
f 101/39/1 102/40/1 103/29/1 104/27/1
f 105/41/1 106/42/1 107/31/1 108/43/1
f 109/42/1 110/44/1 111/32/1 112/31/1
f 113/44/1 114/45/1 115/33/1 116/32/1
f 117/45/1 118/46/1 119/34/1 120/33/1
f 121/46/1 122/47/1 123/35/1 124/34/1
f 125/47/1 126/48/1 127/36/1 128/35/1
f 129/48/1 130/49/1 131/37/1 132/36/1
f 133/49/1 134/50/1 135/38/1 136/37/1
f 137/50/1 138/51/1 139/39/1 140/38/1
f 141/51/1 142/52/1 143/40/1 144/39/1
f 145/53/1 146/54/1 147/42/1 148/41/1
f 149/54/1 150/55/1 151/44/1 152/42/1
f 153/55/1 154/56/1 155/45/1 156/44/1
f 157/56/1 158/57/1 159/46/1 160/45/1
f 161/57/1 162/58/1 163/47/1 164/46/1
f 165/58/1 166/59/1 167/48/1 168/47/1
f 169/59/1 170/60/1 171/49/1 172/48/1
f 173/60/1 174/61/1 175/50/1 176/49/1
f 177/61/1 178/62/1 179/51/1 180/50/1
f 181/62/1 182/63/1 183/52/1 184/51/1
f 185/64/1 186/65/1 187/54/1 188/53/1
f 189/65/1 190/66/1 191/55/1 192/54/1
f 193/66/1 194/67/1 195/56/1 196/55/1
f 197/67/1 198/68/1 199/57/1 200/56/1
f 201/68/1 202/69/1 203/58/1 204/57/1
f 205/69/1 206/70/1 207/59/1 208/58/1
f 209/70/1 210/71/1 211/60/1 212/59/1
f 213/71/1 214/72/1 215/61/1 216/60/1
f 217/72/1 218/73/1 219/62/1 220/61/1
f 221/73/1 222/74/1 223/63/1 224/62/1
f 225/75/1 226/76/1 227/65/1 228/64/1
f 229/76/1 230/77/1 231/66/1 232/65/1
f 233/77/1 234/78/1 235/67/1 236/66/1
f 237/78/1 238/79/1 239/68/1 240/67/1
f 241/79/1 242/80/1 243/69/1 244/68/1
f 245/80/1 246/81/1 247/70/1 248/69/1
f 249/81/1 250/82/1 251/71/1 252/70/1
f 253/82/1 254/83/1 255/72/1 256/71/1
f 257/83/1 258/84/1 259/73/1 260/72/1
f 261/84/1 262/85/1 263/74/1 264/73/1
f 265/86/1 266/87/1 267/76/1 268/75/1
f 269/87/1 270/88/1 271/77/1 272/76/1
f 273/88/1 274/89/1 275/78/1 276/77/1
f 277/89/1 278/90/1 279/79/1 280/78/1
f 281/90/1 282/91/1 283/80/1 284/79/1
f 285/91/1 286/92/1 287/81/1 288/80/1
f 289/92/1 290/93/1 291/82/1 292/81/1
f 293/93/1 294/94/1 295/83/1 296/82/1
f 297/94/1 298/95/1 299/84/1 300/83/1
f 301/95/1 302/96/1 303/85/1 304/84/1
f 305/97/1 306/98/1 307/87/1 308/86/1
f 309/98/1 310/99/1 311/88/1 312/87/1
f 313/99/1 314/100/1 315/89/1 316/88/1
f 317/100/1 318/101/1 319/90/1 320/89/1
f 321/101/1 322/102/1 323/91/1 324/90/1
f 325/102/1 326/103/1 327/92/1 328/91/1
f 329/103/1 330/104/1 331/93/1 332/92/1
f 333/104/1 334/105/1 335/94/1 336/93/1
f 337/105/1 338/106/1 339/95/1 340/94/1
f 341/106/1 342/107/1 343/96/1 344/95/1
f 345/108/1 346/109/1 347/98/1 348/97/1
f 349/109/1 350/110/1 351/99/1 352/98/1
f 353/110/1 354/111/1 355/100/1 356/99/1
f 357/111/1 358/112/1 359/101/1 360/100/1
f 361/112/1 362/113/1 363/102/1 364/101/1
f 365/113/1 366/114/1 367/103/1 368/102/1
f 369/114/1 370/115/1 371/104/1 372/103/1
f 373/115/1 374/116/1 375/105/1 376/104/1
f 377/116/1 378/117/1 379/106/1 380/105/1
f 381/117/1 382/118/1 383/107/1 384/106/1

