# Tiled2Unity generated file. Do not modify by hand.
# Wavefront file for 'PlayerArea_mesh_0015.obj'

# Vertices (Count = 36)
v -10.24 -8.639999 -0.27
v -10.56 -8.639999 -0.27
v -10.56 -8.32 -0.27
v -10.24 -8.32 -0.27
v -10.56 -8.639999 -0.27
v -10.88 -8.639999 -0.27
v -10.88 -8.32 -0.27
v -10.56 -8.32 -0.27
v -11.52 -8.639999 -0.27
v -11.84 -8.639999 -0.27
v -11.84 -8.32 -0.27
v -11.52 -8.32 -0.27
v -11.84 -8.639999 -0.27
v -12.16 -8.639999 -0.27
v -12.16 -8.32 -0.27
v -11.84 -8.32 -0.27
v -9.28 -8.96 -0.28
v -9.599999 -8.96 -0.28
v -9.599999 -8.639999 -0.28
v -9.28 -8.639999 -0.28
v -9.599999 -8.96 -0.28
v -9.92 -8.96 -0.28
v -9.92 -8.639999 -0.28
v -9.599999 -8.639999 -0.28
v -7.36 -9.28 -0.29
v -7.68 -9.28 -0.29
v -7.68 -8.96 -0.29
v -7.36 -8.96 -0.29
v -14.08 -9.28 -0.29
v -14.4 -9.28 -0.29
v -14.4 -8.96 -0.29
v -14.08 -8.96 -0.29
v -14.4 -9.28 -0.29
v -14.72 -9.28 -0.29
v -14.72 -8.96 -0.29
v -14.4 -8.96 -0.29

# Texture cooridinates (Count = 8)
vt 0.03125 0.875
vt 0.0625 0.875
vt 0.0625 0.90625
vt 0.03125 0.90625
vt 0.0625 0.8125
vt 0.09375 0.8125
vt 0.09375 0.84375
vt 0.0625 0.84375

# Normal
vn 0 0 -1

# Mesh description
g PlayerArea_mesh_0015

# Faces
f 1/1/1 2/2/1 3/3/1 4/4/1
f 5/1/1 6/2/1 7/3/1 8/4/1
f 9/5/1 10/6/1 11/7/1 12/8/1
f 13/5/1 14/6/1 15/7/1 16/8/1
f 17/1/1 18/2/1 19/3/1 20/4/1
f 21/1/1 22/2/1 23/3/1 24/4/1
f 25/1/1 26/2/1 27/3/1 28/4/1
f 29/5/1 30/6/1 31/7/1 32/8/1
f 33/5/1 34/6/1 35/7/1 36/8/1

