# Tiled2Unity generated file. Do not modify by hand.
# Wavefront file for 'PlayerArea_mesh_0010.obj'

# Vertices (Count = 156)
v -13.12 -17.28 -0.54
v -13.44 -17.28 -0.54
v -13.44 -16.96 -0.54
v -13.12 -16.96 -0.54
v -13.44 -17.28 -0.54
v -13.76 -17.28 -0.54
v -13.76 -16.96 -0.54
v -13.44 -16.96 -0.54
v -13.76 -17.28 -0.54
v -14.08 -17.28 -0.54
v -14.08 -16.96 -0.54
v -13.76 -16.96 -0.54
v -13.12 -17.6 -0.55
v -13.44 -17.6 -0.55
v -13.44 -17.28 -0.55
v -13.12 -17.28 -0.55
v -13.44 -17.6 -0.55
v -13.76 -17.6 -0.55
v -13.76 -17.28 -0.55
v -13.44 -17.28 -0.55
v -13.76 -17.6 -0.55
v -14.08 -17.6 -0.55
v -14.08 -17.28 -0.55
v -13.76 -17.28 -0.55
v -13.12 -17.92 -0.56
v -13.44 -17.92 -0.56
v -13.44 -17.6 -0.56
v -13.12 -17.6 -0.56
v -13.44 -17.92 -0.56
v -13.76 -17.92 -0.56
v -13.76 -17.6 -0.56
v -13.44 -17.6 -0.56
v -13.76 -17.92 -0.56
v -14.08 -17.92 -0.56
v -14.08 -17.6 -0.56
v -13.76 -17.6 -0.56
v -13.12 -18.24 -0.57
v -13.44 -18.24 -0.57
v -13.44 -17.92 -0.57
v -13.12 -17.92 -0.57
v -13.44 -18.24 -0.57
v -13.76 -18.24 -0.57
v -13.76 -17.92 -0.57
v -13.44 -17.92 -0.57
v -13.76 -18.24 -0.57
v -14.08 -18.24 -0.57
v -14.08 -17.92 -0.57
v -13.76 -17.92 -0.57
v -13.12 -18.56 -0.58
v -13.44 -18.56 -0.58
v -13.44 -18.24 -0.58
v -13.12 -18.24 -0.58
v -13.44 -18.56 -0.58
v -13.76 -18.56 -0.58
v -13.76 -18.24 -0.58
v -13.44 -18.24 -0.58
v -13.76 -18.56 -0.58
v -14.08 -18.56 -0.58
v -14.08 -18.24 -0.58
v -13.76 -18.24 -0.58
v -13.12 -18.88 -0.59
v -13.44 -18.88 -0.59
v -13.44 -18.56 -0.59
v -13.12 -18.56 -0.59
v -13.44 -18.88 -0.59
v -13.76 -18.88 -0.59
v -13.76 -18.56 -0.59
v -13.44 -18.56 -0.59
v -13.76 -18.88 -0.59
v -14.08 -18.88 -0.59
v -14.08 -18.56 -0.59
v -13.76 -18.56 -0.59
v -13.12 -19.2 -0.6
v -13.44 -19.2 -0.6
v -13.44 -18.88 -0.6
v -13.12 -18.88 -0.6
v -13.44 -19.2 -0.6
v -13.76 -19.2 -0.6
v -13.76 -18.88 -0.6
v -13.44 -18.88 -0.6
v -13.76 -19.2 -0.6
v -14.08 -19.2 -0.6
v -14.08 -18.88 -0.6
v -13.76 -18.88 -0.6
v -13.12 -19.52 -0.61
v -13.44 -19.52 -0.61
v -13.44 -19.2 -0.61
v -13.12 -19.2 -0.61
v -13.44 -19.52 -0.61
v -13.76 -19.52 -0.61
v -13.76 -19.2 -0.61
v -13.44 -19.2 -0.61
v -13.76 -19.52 -0.61
v -14.08 -19.52 -0.61
v -14.08 -19.2 -0.61
v -13.76 -19.2 -0.61
v -13.12 -19.84 -0.62
v -13.44 -19.84 -0.62
v -13.44 -19.52 -0.62
v -13.12 -19.52 -0.62
v -13.44 -19.84 -0.62
v -13.76 -19.84 -0.62
v -13.76 -19.52 -0.62
v -13.44 -19.52 -0.62
v -13.76 -19.84 -0.62
v -14.08 -19.84 -0.62
v -14.08 -19.52 -0.62
v -13.76 -19.52 -0.62
v -13.12 -20.16 -0.63
v -13.44 -20.16 -0.63
v -13.44 -19.84 -0.63
v -13.12 -19.84 -0.63
v -13.44 -20.16 -0.63
v -13.76 -20.16 -0.63
v -13.76 -19.84 -0.63
v -13.44 -19.84 -0.63
v -13.76 -20.16 -0.63
v -14.08 -20.16 -0.63
v -14.08 -19.84 -0.63
v -13.76 -19.84 -0.63
v -13.12 -20.48 -0.64
v -13.44 -20.48 -0.64
v -13.44 -20.16 -0.64
v -13.12 -20.16 -0.64
v -13.44 -20.48 -0.64
v -13.76 -20.48 -0.64
v -13.76 -20.16 -0.64
v -13.44 -20.16 -0.64
v -13.76 -20.48 -0.64
v -14.08 -20.48 -0.64
v -14.08 -20.16 -0.64
v -13.76 -20.16 -0.64
v -13.12 -20.8 -0.65
v -13.44 -20.8 -0.65
v -13.44 -20.48 -0.65
v -13.12 -20.48 -0.65
v -13.44 -20.8 -0.65
v -13.76 -20.8 -0.65
v -13.76 -20.48 -0.65
v -13.44 -20.48 -0.65
v -13.76 -20.8 -0.65
v -14.08 -20.8 -0.65
v -14.08 -20.48 -0.65
v -13.76 -20.48 -0.65
v -13.12 -21.12 -0.66
v -13.44 -21.12 -0.66
v -13.44 -20.8 -0.66
v -13.12 -20.8 -0.66
v -13.44 -21.12 -0.66
v -13.76 -21.12 -0.66
v -13.76 -20.8 -0.66
v -13.44 -20.8 -0.66
v -13.76 -21.12 -0.66
v -14.08 -21.12 -0.66
v -14.08 -20.8 -0.66
v -13.76 -20.8 -0.66

# Texture cooridinates (Count = 24)
vt 0 0.40625
vt 0.03125 0.40625
vt 0.03125 0.4375
vt 0 0.4375
vt 0.0625 0.40625
vt 0.0625 0.4375
vt 0.09375 0.40625
vt 0.09375 0.4375
vt 0 0.375
vt 0.03125 0.375
vt 0.0625 0.375
vt 0.09375 0.375
vt 0 0.34375
vt 0.03125 0.34375
vt 0.0625 0.34375
vt 0.09375 0.34375
vt 0 0.3125
vt 0.03125 0.3125
vt 0.0625 0.3125
vt 0.09375 0.3125
vt 0 0.28125
vt 0.03125 0.28125
vt 0.0625 0.28125
vt 0.09375 0.28125

# Normal
vn 0 0 -1

# Mesh description
g PlayerArea_mesh_0010

# Faces
f 1/1/1 2/2/1 3/3/1 4/4/1
f 5/2/1 6/5/1 7/6/1 8/3/1
f 9/5/1 10/7/1 11/8/1 12/6/1
f 13/9/1 14/10/1 15/2/1 16/1/1
f 17/10/1 18/11/1 19/5/1 20/2/1
f 21/11/1 22/12/1 23/7/1 24/5/1
f 25/13/1 26/14/1 27/10/1 28/9/1
f 29/14/1 30/15/1 31/11/1 32/10/1
f 33/15/1 34/16/1 35/12/1 36/11/1
f 37/13/1 38/14/1 39/10/1 40/9/1
f 41/14/1 42/15/1 43/11/1 44/10/1
f 45/15/1 46/16/1 47/12/1 48/11/1
f 49/9/1 50/10/1 51/2/1 52/1/1
f 53/10/1 54/11/1 55/5/1 56/2/1
f 57/11/1 58/12/1 59/7/1 60/5/1
f 61/13/1 62/14/1 63/10/1 64/9/1
f 65/14/1 66/15/1 67/11/1 68/10/1
f 69/15/1 70/16/1 71/12/1 72/11/1
f 73/13/1 74/14/1 75/10/1 76/9/1
f 77/14/1 78/15/1 79/11/1 80/10/1
f 81/15/1 82/16/1 83/12/1 84/11/1
f 85/13/1 86/14/1 87/10/1 88/9/1
f 89/14/1 90/15/1 91/11/1 92/10/1
f 93/15/1 94/16/1 95/12/1 96/11/1
f 97/13/1 98/14/1 99/10/1 100/9/1
f 101/14/1 102/15/1 103/11/1 104/10/1
f 105/15/1 106/16/1 107/12/1 108/11/1
f 109/9/1 110/10/1 111/2/1 112/1/1
f 113/10/1 114/11/1 115/5/1 116/2/1
f 117/11/1 118/12/1 119/7/1 120/5/1
f 121/13/1 122/14/1 123/10/1 124/9/1
f 125/14/1 126/15/1 127/11/1 128/10/1
f 129/15/1 130/16/1 131/12/1 132/11/1
f 133/17/1 134/18/1 135/14/1 136/13/1
f 137/18/1 138/19/1 139/15/1 140/14/1
f 141/19/1 142/20/1 143/16/1 144/15/1
f 145/21/1 146/22/1 147/18/1 148/17/1
f 149/22/1 150/23/1 151/19/1 152/18/1
f 153/23/1 154/24/1 155/20/1 156/19/1

