# Tiled2Unity generated file. Do not modify by hand.
# Wavefront file for 'PlayerArea_mesh_0011.obj'

# Vertices (Count = 88)
v -2.24 -19.52 -0.61
v -2.56 -19.52 -0.61
v -2.56 -19.2 -0.61
v -2.24 -19.2 -0.61
v -5.44 -19.52 -0.61
v -5.76 -19.52 -0.61
v -5.76 -19.2 -0.61
v -5.44 -19.2 -0.61
v -6.4 -19.52 -0.61
v -6.72 -19.52 -0.61
v -6.72 -19.2 -0.61
v -6.4 -19.2 -0.61
v -10.56 -19.52 -0.61
v -10.88 -19.52 -0.61
v -10.88 -19.2 -0.61
v -10.56 -19.2 -0.61
v -2.24 -19.84 -0.62
v -2.56 -19.84 -0.62
v -2.56 -19.52 -0.62
v -2.24 -19.52 -0.62
v -5.44 -19.84 -0.62
v -5.76 -19.84 -0.62
v -5.76 -19.52 -0.62
v -5.44 -19.52 -0.62
v -6.4 -19.84 -0.62
v -6.72 -19.84 -0.62
v -6.72 -19.52 -0.62
v -6.4 -19.52 -0.62
v -10.56 -19.84 -0.62
v -10.88 -19.84 -0.62
v -10.88 -19.52 -0.62
v -10.56 -19.52 -0.62
v -2.24 -20.16 -0.63
v -2.56 -20.16 -0.63
v -2.56 -19.84 -0.63
v -2.24 -19.84 -0.63
v -5.44 -20.16 -0.63
v -5.76 -20.16 -0.63
v -5.76 -19.84 -0.63
v -5.44 -19.84 -0.63
v -6.4 -20.16 -0.63
v -6.72 -20.16 -0.63
v -6.72 -19.84 -0.63
v -6.4 -19.84 -0.63
v -10.56 -20.16 -0.63
v -10.88 -20.16 -0.63
v -10.88 -19.84 -0.63
v -10.56 -19.84 -0.63
v -2.24 -20.48 -0.64
v -2.56 -20.48 -0.64
v -2.56 -20.16 -0.64
v -2.24 -20.16 -0.64
v -5.44 -20.48 -0.64
v -5.76 -20.48 -0.64
v -5.76 -20.16 -0.64
v -5.44 -20.16 -0.64
v -6.4 -20.48 -0.64
v -6.72 -20.48 -0.64
v -6.72 -20.16 -0.64
v -6.4 -20.16 -0.64
v -10.56 -20.48 -0.64
v -10.88 -20.48 -0.64
v -10.88 -20.16 -0.64
v -10.56 -20.16 -0.64
v -2.24 -20.8 -0.65
v -2.56 -20.8 -0.65
v -2.56 -20.48 -0.65
v -2.24 -20.48 -0.65
v -5.44 -20.8 -0.65
v -5.76 -20.8 -0.65
v -5.76 -20.48 -0.65
v -5.44 -20.48 -0.65
v -6.4 -20.8 -0.65
v -6.72 -20.8 -0.65
v -6.72 -20.48 -0.65
v -6.4 -20.48 -0.65
v -10.56 -20.8 -0.65
v -10.88 -20.8 -0.65
v -10.88 -20.48 -0.65
v -10.56 -20.48 -0.65
v -2.24 -21.12 -0.66
v -2.56 -21.12 -0.66
v -2.56 -20.8 -0.66
v -2.24 -20.8 -0.66
v -5.44 -21.12 -0.66
v -5.76 -21.12 -0.66
v -5.76 -20.8 -0.66
v -5.44 -20.8 -0.66

# Texture cooridinates (Count = 6)
vt 0.9375 0.625
vt 0.96875 0.625
vt 0.96875 0.65625
vt 0.9375 0.65625
vt 1 0.625
vt 1 0.65625

# Normal
vn 0 0 -1

# Mesh description
g PlayerArea_mesh_0011

# Faces
f 1/1/1 2/2/1 3/3/1 4/4/1
f 5/2/1 6/5/1 7/6/1 8/3/1
f 9/1/1 10/2/1 11/3/1 12/4/1
f 13/2/1 14/5/1 15/6/1 16/3/1
f 17/1/1 18/2/1 19/3/1 20/4/1
f 21/2/1 22/5/1 23/6/1 24/3/1
f 25/1/1 26/2/1 27/3/1 28/4/1
f 29/2/1 30/5/1 31/6/1 32/3/1
f 33/1/1 34/2/1 35/3/1 36/4/1
f 37/2/1 38/5/1 39/6/1 40/3/1
f 41/1/1 42/2/1 43/3/1 44/4/1
f 45/2/1 46/5/1 47/6/1 48/3/1
f 49/1/1 50/2/1 51/3/1 52/4/1
f 53/2/1 54/5/1 55/6/1 56/3/1
f 57/1/1 58/2/1 59/3/1 60/4/1
f 61/2/1 62/5/1 63/6/1 64/3/1
f 65/1/1 66/2/1 67/3/1 68/4/1
f 69/2/1 70/5/1 71/6/1 72/3/1
f 73/1/1 74/2/1 75/3/1 76/4/1
f 77/2/1 78/5/1 79/6/1 80/3/1
f 81/1/1 82/2/1 83/3/1 84/4/1
f 85/2/1 86/5/1 87/6/1 88/3/1

