# Tiled2Unity generated file. Do not modify by hand.
# Wavefront file for 'PlayerArea_mesh_0020.obj'

# Vertices (Count = 132)
v -12.8 -9.28 -0.29
v -13.12 -9.28 -0.29
v -13.12 -8.96 -0.29
v -12.8 -8.96 -0.29
v -13.12 -9.28 -0.29
v -13.44 -9.28 -0.29
v -13.44 -8.96 -0.29
v -13.12 -8.96 -0.29
v -13.44 -9.28 -0.29
v -13.76 -9.28 -0.29
v -13.76 -8.96 -0.29
v -13.44 -8.96 -0.29
v -12.8 -9.599999 -0.3
v -13.12 -9.599999 -0.3
v -13.12 -9.28 -0.3
v -12.8 -9.28 -0.3
v -13.12 -9.599999 -0.3
v -13.44 -9.599999 -0.3
v -13.44 -9.28 -0.3
v -13.12 -9.28 -0.3
v -13.44 -9.599999 -0.3
v -13.76 -9.599999 -0.3
v -13.76 -9.28 -0.3
v -13.44 -9.28 -0.3
v -12.8 -9.92 -0.31
v -13.12 -9.92 -0.31
v -13.12 -9.599999 -0.31
v -12.8 -9.599999 -0.31
v -13.12 -9.92 -0.31
v -13.44 -9.92 -0.31
v -13.44 -9.599999 -0.31
v -13.12 -9.599999 -0.31
v -13.44 -9.92 -0.31
v -13.76 -9.92 -0.31
v -13.76 -9.599999 -0.31
v -13.44 -9.599999 -0.31
v -12.8 -10.24 -0.32
v -13.12 -10.24 -0.32
v -13.12 -9.92 -0.32
v -12.8 -9.92 -0.32
v -13.12 -10.24 -0.32
v -13.44 -10.24 -0.32
v -13.44 -9.92 -0.32
v -13.12 -9.92 -0.32
v -13.44 -10.24 -0.32
v -13.76 -10.24 -0.32
v -13.76 -9.92 -0.32
v -13.44 -9.92 -0.32
v -12.8 -10.56 -0.33
v -13.12 -10.56 -0.33
v -13.12 -10.24 -0.33
v -12.8 -10.24 -0.33
v -13.12 -10.56 -0.33
v -13.44 -10.56 -0.33
v -13.44 -10.24 -0.33
v -13.12 -10.24 -0.33
v -13.44 -10.56 -0.33
v -13.76 -10.56 -0.33
v -13.76 -10.24 -0.33
v -13.44 -10.24 -0.33
v -12.8 -10.88 -0.34
v -13.12 -10.88 -0.34
v -13.12 -10.56 -0.34
v -12.8 -10.56 -0.34
v -13.12 -10.88 -0.34
v -13.44 -10.88 -0.34
v -13.44 -10.56 -0.34
v -13.12 -10.56 -0.34
v -13.44 -10.88 -0.34
v -13.76 -10.88 -0.34
v -13.76 -10.56 -0.34
v -13.44 -10.56 -0.34
v -12.8 -11.2 -0.35
v -13.12 -11.2 -0.35
v -13.12 -10.88 -0.35
v -12.8 -10.88 -0.35
v -13.12 -11.2 -0.35
v -13.44 -11.2 -0.35
v -13.44 -10.88 -0.35
v -13.12 -10.88 -0.35
v -13.44 -11.2 -0.35
v -13.76 -11.2 -0.35
v -13.76 -10.88 -0.35
v -13.44 -10.88 -0.35
v -12.8 -11.52 -0.36
v -13.12 -11.52 -0.36
v -13.12 -11.2 -0.36
v -12.8 -11.2 -0.36
v -13.12 -11.52 -0.36
v -13.44 -11.52 -0.36
v -13.44 -11.2 -0.36
v -13.12 -11.2 -0.36
v -13.44 -11.52 -0.36
v -13.76 -11.52 -0.36
v -13.76 -11.2 -0.36
v -13.44 -11.2 -0.36
v -12.8 -11.84 -0.37
v -13.12 -11.84 -0.37
v -13.12 -11.52 -0.37
v -12.8 -11.52 -0.37
v -13.12 -11.84 -0.37
v -13.44 -11.84 -0.37
v -13.44 -11.52 -0.37
v -13.12 -11.52 -0.37
v -13.44 -11.84 -0.37
v -13.76 -11.84 -0.37
v -13.76 -11.52 -0.37
v -13.44 -11.52 -0.37
v -12.8 -12.16 -0.38
v -13.12 -12.16 -0.38
v -13.12 -11.84 -0.38
v -12.8 -11.84 -0.38
v -13.12 -12.16 -0.38
v -13.44 -12.16 -0.38
v -13.44 -11.84 -0.38
v -13.12 -11.84 -0.38
v -13.44 -12.16 -0.38
v -13.76 -12.16 -0.38
v -13.76 -11.84 -0.38
v -13.44 -11.84 -0.38
v -12.8 -12.48 -0.39
v -13.12 -12.48 -0.39
v -13.12 -12.16 -0.39
v -12.8 -12.16 -0.39
v -13.12 -12.48 -0.39
v -13.44 -12.48 -0.39
v -13.44 -12.16 -0.39
v -13.12 -12.16 -0.39
v -13.44 -12.48 -0.39
v -13.76 -12.48 -0.39
v -13.76 -12.16 -0.39
v -13.44 -12.16 -0.39

# Texture cooridinates (Count = 24)
vt 0 0.40625
vt 0.03125 0.40625
vt 0.03125 0.4375
vt 0 0.4375
vt 0.0625 0.40625
vt 0.0625 0.4375
vt 0.09375 0.40625
vt 0.09375 0.4375
vt 0 0.34375
vt 0.03125 0.34375
vt 0.03125 0.375
vt 0 0.375
vt 0.0625 0.34375
vt 0.0625 0.375
vt 0.09375 0.34375
vt 0.09375 0.375
vt 0 0.3125
vt 0.03125 0.3125
vt 0.0625 0.3125
vt 0.09375 0.3125
vt 0 0.28125
vt 0.03125 0.28125
vt 0.0625 0.28125
vt 0.09375 0.28125

# Normal
vn 0 0 -1

# Mesh description
g PlayerArea_mesh_0020

# Faces
f 1/1/1 2/2/1 3/3/1 4/4/1
f 5/2/1 6/5/1 7/6/1 8/3/1
f 9/5/1 10/7/1 11/8/1 12/6/1
f 13/9/1 14/10/1 15/11/1 16/12/1
f 17/10/1 18/13/1 19/14/1 20/11/1
f 21/13/1 22/15/1 23/16/1 24/14/1
f 25/12/1 26/11/1 27/2/1 28/1/1
f 29/11/1 30/14/1 31/5/1 32/2/1
f 33/14/1 34/16/1 35/7/1 36/5/1
f 37/9/1 38/10/1 39/11/1 40/12/1
f 41/10/1 42/13/1 43/14/1 44/11/1
f 45/13/1 46/15/1 47/16/1 48/14/1
f 49/9/1 50/10/1 51/11/1 52/12/1
f 53/10/1 54/13/1 55/14/1 56/11/1
f 57/13/1 58/15/1 59/16/1 60/14/1
f 61/12/1 62/11/1 63/2/1 64/1/1
f 65/11/1 66/14/1 67/5/1 68/2/1
f 69/14/1 70/16/1 71/7/1 72/5/1
f 73/9/1 74/10/1 75/11/1 76/12/1
f 77/10/1 78/13/1 79/14/1 80/11/1
f 81/13/1 82/15/1 83/16/1 84/14/1
f 85/9/1 86/10/1 87/11/1 88/12/1
f 89/10/1 90/13/1 91/14/1 92/11/1
f 93/13/1 94/15/1 95/16/1 96/14/1
f 97/12/1 98/11/1 99/2/1 100/1/1
f 101/11/1 102/14/1 103/5/1 104/2/1
f 105/14/1 106/16/1 107/7/1 108/5/1
f 109/17/1 110/18/1 111/10/1 112/9/1
f 113/18/1 114/19/1 115/13/1 116/10/1
f 117/19/1 118/20/1 119/15/1 120/13/1
f 121/21/1 122/22/1 123/18/1 124/17/1
f 125/22/1 126/23/1 127/19/1 128/18/1
f 129/23/1 130/24/1 131/20/1 132/19/1

